<svg width="56" height="56" viewBox="0 0 56 56" fill="none" xmlns="http://www.w3.org/2000/svg">
<rect width="56" height="56" rx="28" fill="#F5F7FF"/>
<path d="M35.5312 20.4614C33.2283 20.4614 31.3269 22.2125 31.088 24.4531C32.7594 25.49 33.875 27.3415 33.875 29.449V32.4615C33.875 33.5604 33.3798 34.5706 32.5687 35.2436V39.2896C32.5687 39.6779 32.8836 39.9927 33.2719 39.9927H37.7906C38.1789 39.9927 38.4937 39.6779 38.4937 39.2896V32.2968C39.3684 32.0024 40 31.1746 40 30.2021V24.9302C40 22.4661 37.9953 20.4614 35.5312 20.4614Z" fill="#3165F7"/>
<path d="M35.5313 20.4614C36.7633 20.4614 37.7657 19.4591 37.7657 18.2271C37.6533 15.2669 33.4088 15.2677 33.2969 18.2271C33.2969 19.4591 34.2992 20.4614 35.5313 20.4614Z" fill="#3165F7"/>
<path d="M30.2344 22.7458C30.2344 21.5137 29.232 20.5114 28 20.5114C25.0398 20.6237 25.0406 24.8683 28 24.9802C29.232 24.9802 30.2344 23.9779 30.2344 22.7458Z" fill="#3165F7"/>
<path d="M28 24.9802C25.6971 24.9802 23.7956 26.7313 23.5568 28.9719C25.2282 30.0088 26.3438 31.8603 26.3438 33.9678V34.7208C26.3438 35.8197 25.8485 36.83 25.0375 37.503V39.2896C25.0375 39.6779 25.3523 39.9927 25.7406 39.9927H30.2594C30.6477 39.9927 30.9625 39.6779 30.9625 39.2896V34.5562C31.8371 34.2618 32.4687 33.4341 32.4687 32.4615V29.449C32.4687 26.9849 30.4641 24.9802 28 24.9802Z" fill="#3165F7"/>
<path d="M20.4687 29.499C17.9963 29.499 16 31.5002 16 33.9677V34.7208C16 35.6934 16.6316 36.5212 17.5062 36.8155V39.2896C17.5062 39.6779 17.821 39.9927 18.2094 39.9927H22.7281C23.1164 39.9927 23.4312 39.6779 23.4312 39.2896V36.8155C24.3059 36.5212 24.9375 35.6934 24.9375 34.7208V33.9677C24.9375 31.4956 22.9368 29.499 20.4687 29.499Z" fill="#3165F7"/>
<path d="M20.4688 29.4989C21.7008 29.4989 22.7032 28.4966 22.7032 27.2645C22.5908 24.3044 18.3463 24.3052 18.2344 27.2646C18.2344 28.4966 19.2368 29.4989 20.4688 29.4989Z" fill="#3165F7"/>
</svg>
