<svg width="32" height="32" viewBox="0 0 32 32" fill="none" xmlns="http://www.w3.org/2000/svg">
<g id="Iconly/Bold/Chat">
<g id="Chat">
<path id="Chat_2" fill-rule="evenodd" clip-rule="evenodd" d="M2.66675 16.02C2.66675 8.99612 8.28008 2.66663 16.0267 2.66663C23.6001 2.66663 29.3334 8.87594 29.3334 15.9799C29.3334 24.219 22.6134 29.3333 16.0001 29.3333C13.8134 29.3333 11.3867 28.7457 9.44008 27.5974C8.76008 27.1834 8.18675 26.8763 7.45341 27.1166L4.76008 27.9178C4.08008 28.1315 3.46675 27.5974 3.66675 26.8763L4.56008 23.8851C4.70675 23.4712 4.68008 23.0305 4.46675 22.6833C3.32008 20.5735 2.66675 18.2634 2.66675 16.02ZM14.2667 16.02C14.2667 16.9681 15.0267 17.7292 15.9734 17.7426C16.9201 17.7426 17.6801 16.9681 17.6801 16.0333C17.6801 15.0853 16.9201 14.3241 15.9734 14.3241C15.0401 14.3108 14.2667 15.0853 14.2667 16.02ZM20.4134 16.0333C20.4134 16.9681 21.1734 17.7426 22.1201 17.7426C23.0667 17.7426 23.8267 16.9681 23.8267 16.0333C23.8267 15.0853 23.0667 14.3241 22.1201 14.3241C21.1734 14.3241 20.4134 15.0853 20.4134 16.0333ZM9.82675 17.7426C8.89341 17.7426 8.12008 16.9681 8.12008 16.0333C8.12008 15.0853 8.88008 14.3241 9.82675 14.3241C10.7734 14.3241 11.5334 15.0853 11.5334 16.0333C11.5334 16.9681 10.7734 17.7292 9.82675 17.7426Z" fill="white"/>
</g>
</g>
</svg>
