<svg width="56" height="56" viewBox="0 0 56 56" fill="none" xmlns="http://www.w3.org/2000/svg">
<rect width="56" height="56" rx="28" fill="#F5F7FF"/>
<path d="M28.5342 28.9019C28.1911 29.0323 27.8122 29.0327 27.4688 28.9031L21 26.4387V32.025C21 32.1264 21.0308 32.2254 21.0884 32.3088C21.1459 32.3923 21.2275 32.4563 21.3222 32.4923L27.8223 34.9673C27.9367 35.0109 28.0633 35.0109 28.1778 34.9673L34.6778 32.4923C34.7725 32.4563 34.8541 32.3923 34.9116 32.3088C34.9692 32.2254 35 32.1264 35 32.025V26.4387L28.5342 28.9019Z" fill="#3165F7"/>
<path d="M38.6782 23.0327L28.1782 19.0327C28.0634 18.9893 27.9366 18.9893 27.8218 19.0327L17.3218 23.0327C17.227 23.0688 17.1455 23.1328 17.088 23.2162C17.0304 23.2997 16.9996 23.3986 16.9996 23.5C16.9996 23.6014 17.0304 23.7003 17.088 23.7838C17.1455 23.8673 17.227 23.9313 17.3218 23.9673L27.8218 27.9673C27.9366 28.0109 28.0634 28.0109 28.1782 27.9673L38.6782 23.9673C38.7729 23.9313 38.8545 23.8673 38.912 23.7838C38.9695 23.7003 39.0003 23.6014 39.0003 23.5C39.0003 23.3986 38.9695 23.2997 38.912 23.2162C38.8545 23.1328 38.7729 23.0688 38.6782 23.0327Z" fill="#3165F7"/>
<path d="M19.5 34C19.3674 34 19.2402 33.9473 19.1464 33.8536C19.0527 33.7598 19 33.6326 19 33.5V24.262C19 24.1294 19.0527 24.0022 19.1464 23.9084C19.2402 23.8146 19.3674 23.762 19.5 23.762C19.6326 23.762 19.7598 23.8146 19.8536 23.9084C19.9473 24.0022 20 24.1294 20 24.262V33.5C20 33.6326 19.9473 33.7598 19.8536 33.8536C19.7598 33.9473 19.6326 34 19.5 34Z" fill="#3165F7"/>
<path d="M19.5 33C19.1023 33.0004 18.721 33.1586 18.4398 33.4398C18.1586 33.721 18.0004 34.1023 18 34.5V36.5C18 36.6326 18.0527 36.7598 18.1464 36.8536C18.2402 36.9473 18.3674 37 18.5 37H20.5C20.6326 37 20.7598 36.9473 20.8536 36.8536C20.9473 36.7598 21 36.6326 21 36.5V34.5C20.9996 34.1023 20.8414 33.721 20.5602 33.4398C20.279 33.1586 19.8977 33.0004 19.5 33V33Z" fill="#3165F7"/>
</svg>
