<svg width="16" height="16" viewBox="0 0 16 16" fill="none" xmlns="http://www.w3.org/2000/svg">
<path d="M12.651 2.96069C12.4369 2.96069 12.2626 3.13497 12.2626 3.34913C12.2626 3.56329 12.4369 3.73757 12.651 3.73757C12.8652 3.73757 13.0394 3.56332 13.0394 3.34913C13.0394 3.13494 12.8652 2.96069 12.651 2.96069Z" fill="#151547"/>
<path d="M8.00002 4.5564C6.10121 4.5564 4.5564 6.10121 4.5564 8.00002C4.5564 9.89883 6.10121 11.4437 8.00002 11.4437C9.89887 11.4437 11.4437 9.89887 11.4437 8.00005C11.4437 6.10124 9.89887 4.5564 8.00002 4.5564Z" fill="#151547"/>
<path d="M11.6138 0H4.38616C1.96762 0 0 1.96763 0 4.38619V11.6138C0 14.0324 1.96762 16 4.38616 16H11.6138C14.0324 16 16 14.0324 16 11.6138V4.38619C16 1.96763 14.0324 0 11.6138 0ZM8 12.3885C5.58016 12.3885 3.61153 10.4198 3.61153 8C3.61153 5.58016 5.58019 3.61156 8 3.61156C10.4198 3.61156 12.3885 5.58019 12.3885 8C12.3885 10.4198 10.4198 12.3885 8 12.3885ZM12.651 4.68237C11.9158 4.68237 11.3177 4.08425 11.3177 3.34906C11.3177 2.61387 11.9158 2.01572 12.651 2.01572C13.3862 2.01572 13.9843 2.61384 13.9843 3.34903C13.9843 4.08422 13.3862 4.68237 12.651 4.68237Z" fill="#151547"/>
</svg>
