<svg width="20" height="20" viewBox="0 0 20 20" fill="none" xmlns="http://www.w3.org/2000/svg">
<path fill-rule="evenodd" clip-rule="evenodd" d="M2.91663 8.59821C2.91663 4.76499 6.11986 1.66675 9.9945 1.66675C13.8801 1.66675 17.0833 4.76499 17.0833 8.59821C17.0833 10.5298 16.3808 12.3231 15.2245 13.8431C13.949 15.5197 12.3768 16.9805 10.6071 18.1271C10.2021 18.3921 9.83652 18.4121 9.392 18.1271C7.61224 16.9805 6.04003 15.5197 4.77538 13.8431C3.61828 12.3231 2.91663 10.5298 2.91663 8.59821ZM7.66184 8.81403C7.66184 10.0982 8.70969 11.1081 9.99452 11.1081C11.2802 11.1081 12.3381 10.0982 12.3381 8.81403C12.3381 7.5399 11.2802 6.48076 9.99452 6.48076C8.70969 6.48076 7.66184 7.5399 7.66184 8.81403Z" fill="white"/>
</svg>
