<svg width="20" height="20" viewBox="0 0 20 20" fill="none" xmlns="http://www.w3.org/2000/svg">
<path fill-rule="evenodd" clip-rule="evenodd" d="M14.1162 2.5C15.2337 2.5 16.3087 2.94167 17.0995 3.73417C17.8912 4.525 18.3337 5.59167 18.3337 6.70833V13.2917C18.3337 15.6167 16.442 17.5 14.1162 17.5H5.88366C3.55783 17.5 1.66699 15.6167 1.66699 13.2917V6.70833C1.66699 4.38333 3.54949 2.5 5.88366 2.5H14.1162ZM15.442 7.95001L15.5087 7.88335C15.7078 7.64168 15.7078 7.29168 15.4995 7.05001C15.3837 6.92585 15.2245 6.85001 15.0587 6.83335C14.8837 6.82418 14.717 6.88335 14.5912 7.00001L10.8337 10C10.3503 10.4008 9.65784 10.4008 9.167 10L5.417 7.00001C5.15784 6.80835 4.7995 6.83335 4.58367 7.05835C4.35867 7.28335 4.33367 7.64168 4.5245 7.89168L4.63367 8.00001L8.42534 10.9583C8.892 11.325 9.45784 11.525 10.0503 11.525C10.6412 11.525 11.217 11.325 11.6828 10.9583L15.442 7.95001Z" fill="white"/>
</svg>
