<svg width="56" height="56" viewBox="0 0 56 56" fill="none" xmlns="http://www.w3.org/2000/svg">
<rect width="56" height="56" rx="28" fill="#F5F7FF"/>
<g clip-path="url(#clip0_118_489)">
<path d="M39.9032 25.488L35.6375 18.2195C35.442 17.8863 35.0141 17.7732 34.6795 17.9665L32.1231 19.4424L29.8204 18.5954C29.7357 18.5643 29.6498 18.5381 29.5634 18.5161C28.915 18.3513 28.2278 18.4438 27.6414 18.7824L23.835 20.98C22.9943 21.4654 22.7062 22.5405 23.1916 23.3812C23.677 24.222 24.7521 24.51 25.5928 24.0246L29.7697 21.6131C30.2048 21.3619 30.7409 21.3619 31.176 21.6131C31.176 21.6131 39.5913 26.4733 39.6183 26.49L39.7437 26.3868C40.0105 26.1671 40.0781 25.7861 39.9032 25.488Z" fill="#3165F7"/>
<path d="M38.8339 27.6581L30.4729 22.8309L26.296 25.2424C25.8085 25.5239 25.2674 25.6677 24.7191 25.6677C24.4442 25.6677 24.1676 25.6315 23.8951 25.5586C23.0787 25.3398 22.3963 24.8163 21.9738 24.0843C21.5512 23.3524 21.439 22.4997 21.6578 21.6834C21.8383 21.0094 22.2271 20.4273 22.7689 20.0067L21.045 19.0114C20.7012 18.8129 20.2614 18.9382 20.0738 19.288L16.0836 26.7271C15.9041 27.0618 16.0228 27.4785 16.3517 27.6684L16.7172 27.8793L17.3587 26.7682C17.8908 25.8464 18.883 25.2738 19.948 25.2738C20.4706 25.2738 20.9868 25.4123 21.4407 25.6744C21.7019 25.8252 21.9348 26.011 22.1348 26.2254C22.4581 26.1073 22.8034 26.0439 23.157 26.0439C23.6795 26.0439 24.1957 26.1824 24.6496 26.4445C25.3409 26.8436 25.8353 27.488 26.0419 28.259C26.0647 28.3438 26.0829 28.429 26.0981 28.5145C26.3856 28.5809 26.6633 28.6897 26.921 28.8385C27.6123 29.2375 28.1068 29.882 28.3133 30.653C28.3361 30.7378 28.3543 30.823 28.3695 30.9084C28.657 30.9748 28.9347 31.0836 29.1924 31.2324C30.6194 32.0563 31.1101 33.8875 30.2863 35.3145L29.4103 36.8316L31.2879 37.9157C32.0446 38.3525 33.0121 38.0933 33.449 37.3366C33.8858 36.5799 33.6266 35.6124 32.8699 35.1755L34.0878 35.8786C34.8444 36.3155 35.812 36.0562 36.2489 35.2996C36.6857 34.5429 36.4265 33.5753 35.6698 33.1384L36.4817 33.6072C37.2384 34.0441 38.206 33.7848 38.6428 33.0281C39.0797 32.2714 38.8204 31.3038 38.0637 30.867L37.2518 30.3983C38.0085 30.8351 38.9761 30.5759 39.4129 29.8192C39.8498 29.0625 39.5905 28.095 38.8339 27.6581Z" fill="#3165F7"/>
<path d="M28.4892 32.4504C27.7326 32.0135 26.765 32.2727 26.3282 33.0294L26.7969 32.2175C27.2338 31.4609 26.9745 30.4933 26.2179 30.0564C25.4612 29.6196 24.4936 29.8788 24.0568 30.6355L24.5255 29.8236C24.9624 29.0669 24.7031 28.0994 23.9465 27.6625C23.1898 27.2256 22.2223 27.4849 21.7854 28.2415L21.3166 29.0534C21.7535 28.2968 21.4943 27.3292 20.7376 26.8923C19.9809 26.4555 19.0134 26.7147 18.5765 27.4714L16.8773 30.4145C16.4404 31.1712 16.6997 32.1388 17.4563 32.5756C18.213 33.0125 19.1806 32.7532 19.6174 31.9965C19.1805 32.7532 19.4398 33.7208 20.1964 34.1576C20.9531 34.5945 21.9207 34.3352 22.3575 33.5785C21.9206 34.3351 22.1799 35.3027 22.9366 35.7396C23.6933 36.1764 24.6608 35.9172 25.0977 35.1605C24.6608 35.9171 24.9201 36.8847 25.6767 37.3216C26.4334 37.7584 27.401 37.4992 27.8378 36.7425L29.0683 34.6112C29.5052 33.8548 29.2459 32.8872 28.4892 32.4504Z" fill="#3165F7"/>
</g>
<defs>
<clipPath id="clip0_118_489">
<rect width="24" height="24" fill="white" transform="translate(16 16)"/>
</clipPath>
</defs>
</svg>
