<svg width="17" height="12" viewBox="0 0 17 12" fill="none" xmlns="http://www.w3.org/2000/svg">
<path d="M16.4086 1.75293C16.2242 1.06748 15.6838 0.527149 14.9985 0.342578C13.7464 0 8.7381 0 8.7381 0C8.7381 0 3.72999 0 2.47793 0.32959C1.80576 0.513965 1.25215 1.06758 1.06777 1.75293C0.738281 3.00488 0.738281 5.60127 0.738281 5.60127C0.738281 5.60127 0.738281 8.21075 1.06777 9.44961C1.25234 10.135 1.79258 10.6753 2.47803 10.8599C3.74317 11.2025 8.7383 11.2025 8.7383 11.2025C8.7383 11.2025 13.7464 11.2025 14.9985 10.873C15.6839 10.6885 16.2242 10.1481 16.4088 9.4628C16.7382 8.21075 16.7382 5.61446 16.7382 5.61446C16.7382 5.61446 16.7514 3.00488 16.4086 1.75293V1.75293ZM7.14357 7.99991V3.20264L11.3082 5.60127L7.14357 7.99991Z" fill="#151547"/>
</svg>
